<?xml version="1.0" encoding="utf-8"?>
<svg viewBox="36.0808 140.3263 238.8446 31.5978" width="238.8446" height="31.5978" xmlns="http://www.w3.org/2000/svg">
  <defs>
    <linearGradient id="SvgjsLinearGradient2261">
      <stop id="SvgjsStop2262" stop-color="#ee2a7b" offset="0"/>
      <stop id="SvgjsStop2263" stop-color="#ff7db8" offset="1"/>
    </linearGradient>
  </defs>
  <path d="M 20.823 122.469 C 20.823 117.453 18.195 113.584 13.371 111.577 C 10.218 110.288 7.161 110.24 6.826 110.24 C 6.826 110.24 4.916 110.192 3.1 109.476 C 0.616 108.472 0.282 106.944 0.282 105.606 C 0.282 105.606 0.377 103.743 1.667 102.454 C 2.766 101.355 4.486 100.829 6.826 100.829 C 10.457 100.829 11.746 102.406 12.415 103.6 C 12.893 104.555 13.132 105.511 13.275 106.179 L 13.275 106.323 C 13.371 106.705 13.705 107.039 14.087 107.087 L 19.867 107.087 C 20.393 107.087 20.775 106.657 20.775 106.084 L 20.775 105.988 C 20.584 104.078 19.819 100.208 16.81 97.151 C 13.705 93.998 9.645 93.377 6.826 93.377 C 2.432 93.377 -1.103 94.667 -3.587 97.199 C -7.074 100.686 -7.17 105.129 -7.17 105.606 C -7.17 110.622 -4.543 114.444 0.282 116.402 C 3.435 117.644 6.492 117.692 6.826 117.692 C 6.826 117.692 8.737 117.74 10.552 118.504 C 13.036 119.507 13.371 121.083 13.371 122.421 C 13.371 122.421 13.275 123.615 12.606 124.714 C 11.603 126.338 9.74 127.15 6.826 127.15 C 4.103 127.15 2.24 126.29 1.237 124.618 C 0.76 123.902 0.521 123.09 0.425 122.516 C 0.425 122.469 0.377 122.421 0.377 122.373 L 0.377 122.325 C 0.282 121.943 -0.005 121.704 -0.387 121.657 L -6.262 121.657 C -6.74 121.704 -7.122 122.134 -7.122 122.612 C -7.122 122.708 -7.074 122.803 -7.074 122.899 C -6.931 124.141 -6.501 126.099 -5.403 128.105 C -3.062 132.261 1.285 134.602 6.826 134.602 C 13.848 134.602 17.288 131.354 18.96 128.583 C 20.775 125.669 20.823 122.803 20.823 122.469 Z M 56.437 99.922 L 56.437 94.428 C 56.437 93.855 56.007 93.425 55.529 93.425 L 29.4 93.425 C 28.874 93.425 28.444 93.855 28.444 94.428 L 28.444 98.489 L 38.189 110.24 L 28.444 110.24 L 28.444 133.503 C 28.444 134.029 28.874 134.506 29.4 134.506 L 34.988 134.506 C 35.514 134.506 35.896 134.029 35.896 133.503 L 35.896 117.692 L 50.609 117.692 C 51.278 117.692 51.755 117.262 51.755 116.736 L 51.755 111.147 C 51.755 110.622 51.278 110.24 50.609 110.24 L 47.934 110.24 L 40.148 100.877 L 55.529 100.877 C 56.007 100.877 56.437 100.447 56.437 99.922 Z M 112.236 133.599 L 112.236 128.01 C 112.236 127.484 111.71 127.055 111.041 127.055 L 97.284 127.055 L 97.284 94.619 C 97.284 93.998 96.902 93.473 96.376 93.473 L 90.787 93.473 C 90.262 93.473 89.832 93.998 89.832 94.619 L 89.832 133.599 C 89.832 134.124 90.262 134.506 90.787 134.506 L 111.041 134.506 C 111.71 134.506 112.236 134.124 112.236 133.599 Z M 137.054 134.554 C 148.375 134.554 157.595 125.335 157.595 114.014 C 157.595 102.692 148.375 93.473 137.054 93.473 C 125.733 93.473 116.513 102.692 116.513 114.014 C 116.513 125.335 125.733 134.554 137.054 134.554 Z M 137.054 100.925 C 144.267 100.925 150.095 106.8 150.095 114.014 C 150.095 121.227 144.267 127.055 137.054 127.055 C 129.841 127.055 123.965 121.227 123.965 114.014 C 123.965 106.8 129.841 100.925 137.054 100.925 Z M 190.581 118.647 L 190.581 124.236 C 190.581 124.762 190.152 125.144 189.626 125.144 L 188.336 125.144 L 190.343 133.121 L 190.39 133.36 L 190.39 133.456 C 190.39 134.029 190.008 134.459 189.483 134.459 L 183.703 134.459 C 183.321 134.459 182.986 134.172 182.843 133.79 L 182.795 133.647 L 180.693 125.144 L 172.525 125.144 L 170.423 133.694 C 170.423 133.694 170.375 133.742 170.375 133.79 C 170.28 134.172 169.897 134.459 169.515 134.459 L 163.735 134.459 C 163.258 134.459 162.828 134.029 162.828 133.456 L 162.828 133.264 C 162.875 133.264 162.875 133.217 162.875 133.169 L 172.573 94.428 L 172.62 94.142 C 172.764 93.807 173.098 93.568 173.48 93.568 L 179.738 93.568 C 180.12 93.568 180.454 93.807 180.598 94.142 L 180.645 94.381 L 186.473 117.74 L 189.626 117.74 C 190.152 117.74 190.581 118.122 190.581 118.647 Z M 174.388 117.74 L 178.83 117.74 L 176.633 108.902 L 174.388 117.74 Z M 210.336 134.506 L 200.114 134.506 C 199.588 134.506 199.158 134.029 199.158 133.36 L 199.158 94.428 C 199.158 93.951 199.588 93.521 200.114 93.521 L 210.336 93.521 C 216.26 93.521 222.183 96.1 226.196 101.02 C 233.409 109.762 232.119 122.708 223.425 129.873 C 219.603 133.026 214.97 134.554 210.336 134.506 Z M 220.463 105.75 C 217.884 102.597 214.11 100.973 210.336 100.973 L 206.61 100.973 L 206.61 127.055 L 210.336 127.055 C 213.298 127.102 216.26 126.099 218.648 124.093 C 224.237 119.555 225.049 111.291 220.463 105.75 Z M 266.969 133.599 L 266.969 128.01 C 266.969 127.484 266.539 127.055 266.061 127.055 L 246.428 127.055 L 246.428 117.74 L 264.15 117.74 C 264.676 117.74 265.106 117.31 265.106 116.784 L 265.106 111.195 C 265.106 110.67 264.676 110.288 264.15 110.288 L 246.428 110.288 L 246.428 100.925 L 265.106 100.925 C 265.631 100.925 266.061 100.543 266.061 100.017 L 266.061 94.428 C 266.061 93.903 265.631 93.473 265.106 93.473 L 239.932 93.473 C 239.406 93.473 238.976 93.903 238.976 94.428 L 238.976 133.599 C 238.976 134.124 239.406 134.554 239.932 134.554 L 266.061 134.554 C 266.539 134.554 266.969 134.124 266.969 133.599 Z M 302.822 133.026 L 302.869 133.121 C 302.965 133.264 302.965 133.408 302.965 133.551 C 302.965 134.124 302.583 134.554 302.057 134.554 L 295.656 134.554 C 295.322 134.554 295.035 134.363 294.892 134.124 L 294.797 133.981 L 286.628 119.555 L 285.625 117.74 L 282.042 117.74 L 282.042 133.599 C 282.042 134.124 281.612 134.554 281.135 134.554 L 275.546 134.554 C 275.02 134.554 274.59 134.124 274.59 133.599 L 274.59 110.288 L 281.421 110.288 L 275.068 99.11 L 275.068 99.062 L 274.59 98.202 L 274.59 94.428 C 274.59 93.951 275.02 93.521 275.546 93.521 L 289.494 93.521 C 293.841 93.521 297.615 94.715 300.29 97.008 C 302.917 99.205 304.446 102.358 304.446 105.654 C 304.446 110.67 300.863 115.781 293.937 117.31 L 294.176 117.74 L 295.226 119.555 L 302.822 133.026 Z M 288.969 108.52 L 289.972 110.288 C 290.45 110.288 290.927 110.24 291.357 110.192 C 295.226 109.667 296.946 107.565 296.946 105.654 C 296.946 103.409 294.653 100.973 289.494 100.973 L 284.717 100.973 L 288.969 108.52 Z" fill="url(#SvgjsLinearGradient2261)" style="" transform="matrix(0.7664709687232971, 0, 0, 0.7664709687232971, 41.5764274597168, 68.75552368164062)"/>
</svg>